<svg width="16" height="16" viewBox="0 0 16 16" fill="none" xmlns="http://www.w3.org/2000/svg">
  <path d="M8 0C3.58 0 0 3.58 0 8C0 12.42 3.58 16 8 16C12.42 16 16 12.42 16 8C16 3.58 12.42 0 8 0ZM8 14C4.69 14 2 11.31 2 8C2 4.69 4.69 2 8 2C11.31 2 14 4.69 14 8C14 11.31 11.31 14 8 14Z" fill="#1677FF"/>
  <path d="M8 4C5.79 4 4 5.79 4 8C4 10.21 5.79 12 8 12C10.21 12 12 10.21 12 8C12 5.79 10.21 4 8 4ZM8 10.5C6.62 10.5 5.5 9.38 5.5 8C5.5 6.62 6.62 5.5 8 5.5C9.38 5.5 10.5 6.62 10.5 8C10.5 9.38 9.38 10.5 8 10.5Z" fill="#1677FF"/>
  <circle cx="8" cy="8" r="1.5" fill="#1677FF"/>
</svg>
